<svg xmlns:xlink="http://www.w3.org/1999/xlink" xmlns="http://www.w3.org/2000/svg" width="1.125" height="1.125" viewBox="0 0 18 18" fill="var(--sf-inactive-dark)"><path fill-rule="evenodd" clip-rule="evenodd" d="M3.10746 3.10679C-0.146905 6.36116 -0.146905 11.6375 3.10746 14.8919C6.36183 18.1463 11.6382 18.1463 14.8926 14.8919C18.1469 11.6375 18.1469 6.36116 14.8926 3.10679C11.6382 -0.147577 6.36183 -0.147577 3.10746 3.10679ZM11.9899 6.10013C12.2711 6.42753 12.2565 6.92143 11.9463 7.23163L10.1786 8.9994L11.9463 10.7671C11.9463 10.7671 11.9463 10.7671 11.9463 10.7671C11.9615 10.7824 11.9761 10.7981 11.9899 10.8142C12.2711 11.1416 12.2565 11.6355 11.9463 11.9457C11.6386 12.2535 11.15 12.2702 10.8225 11.9958C10.8092 11.9846 10.796 11.9728 10.7832 11.9606C10.778 11.9557 10.7729 11.9507 10.7678 11.9457L9.00007 10.1779L7.2323 11.9457C6.9248 12.2532 6.43679 12.2701 6.10939 11.9965C6.09569 11.9851 6.08226 11.9731 6.06914 11.9606C6.06398 11.9557 6.05886 11.9507 6.05379 11.9457C5.72835 11.6202 5.72835 11.0926 6.05379 10.7672L7.82156 8.9994L6.05379 7.23163C5.72835 6.90619 5.72835 6.37856 6.05379 6.05312C6.37923 5.72768 6.90686 5.72768 7.2323 6.05312L9.00002 7.82084L10.7678 6.05312C11.0933 5.72769 11.6209 5.72768 11.9463 6.05309C11.9463 6.0531 11.9463 6.05309 11.9463 6.05309" fill="#A6AAAD"></path></svg>