<svg xmlns:xlink="http://www.w3.org/1999/xlink" width="1.5" height="1.5" viewBox="0 0 24 24" fill="none" xmlns="http://www.w3.org/2000/svg"><path d="M13.7499 9.75089L8.42294 11.5266C7.96709 11.6785 7.96709 12.3233 8.42294 12.4752L13.7499 14.2509L15.5256 19.5779C15.6775 20.0337 16.3223 20.0337 16.4743 19.5779L18.2499 14.2509L23.5769 12.4752C24.0327 12.3233 24.0327 11.6785 23.5769 11.5266L18.2499 9.75089L16.4743 4.42392C16.3223 3.96807 15.6775 3.96807 15.5256 4.42392L13.7499 9.75089Z" fill="url(&quot;#p0&quot;)"></path><path d="M4.24992 4.25089L0.422941 5.52655C-0.0329074 5.6785 -0.0329074 6.32328 0.422941 6.47523L4.24992 7.75089L5.52557 11.5779C5.67752 12.0337 6.32231 12.0337 6.47426 11.5779L7.74992 7.75089L11.5769 6.47523C12.0327 6.32328 12.0327 5.6785 11.5769 5.52655L7.74992 4.25089L6.47426 0.423917C6.32231 -0.0319308 5.67752 -0.0319308 5.52557 0.423917L4.24992 4.25089Z" fill="url(&quot;#p1&quot;)"></path><path d="M6.49992 17.5009L3.42294 18.5266C2.96709 18.6785 2.96709 19.3233 3.42294 19.4752L6.49992 20.5009L7.52557 23.5779C7.67752 24.0337 8.32231 24.0337 8.47426 23.5779L9.49992 20.5009L12.5769 19.4752C13.0327 19.3233 13.0327 18.6785 12.5769 18.5266L9.49992 17.5009L8.47426 14.4239C8.32231 13.9681 7.67752 13.9681 7.52557 14.4239L6.49992 17.5009Z" fill="url(&quot;#p2&quot;)"></path><defs><linearGradient id="p0" x1="23.9188" y1="19.9198" x2="8.08105" y2="4.08203" gradientUnits="userSpaceOnUse"><stop stop-color="white"></stop><stop offset="1" stop-color="white" stop-opacity="0.5"></stop></linearGradient><linearGradient id="p1" x1="11.9188" y1="11.9198" x2="0.0810566" y2="0.0820293" gradientUnits="userSpaceOnUse"><stop stop-color="white"></stop><stop offset="1" stop-color="white" stop-opacity="0.5"></stop></linearGradient><linearGradient id="p2" x1="12.9188" y1="23.9198" x2="3.08105" y2="14.082" gradientUnits="userSpaceOnUse"><stop stop-color="white"></stop><stop offset="1" stop-color="white" stop-opacity="0.5"></stop></linearGradient><linearGradient id="p0" x1="23.9188" y1="19.9198" x2="8.08105" y2="4.08203" gradientUnits="userSpaceOnUse"><stop stop-color="white"></stop><stop offset="1" stop-color="white" stop-opacity="0.5"></stop></linearGradient><linearGradient id="p1" x1="11.9188" y1="11.9198" x2="0.0810566" y2="0.0820293" gradientUnits="userSpaceOnUse"><stop stop-color="white"></stop><stop offset="1" stop-color="white" stop-opacity="0.5"></stop></linearGradient><linearGradient id="p2" x1="12.9188" y1="23.9198" x2="3.08105" y2="14.082" gradientUnits="userSpaceOnUse"><stop stop-color="white"></stop><stop offset="1" stop-color="white" stop-opacity="0.5"></stop></linearGradient></defs></svg>