<svg xmlns:xlink="http://www.w3.org/1999/xlink" xmlns="http://www.w3.org/2000/svg" width="20" height="20" viewBox="0 0 20 20" fill="var(--sf-alert-main)"><path d="M9.00033 0.666016C13.5952 0.666016 17.3337 4.40435 17.3337 8.99935C17.3337 13.5944 13.5953 17.3327 9.00033 17.3327C4.40532 17.3327 0.666992 13.5944 0.666992 8.99935C0.666992 4.40435 4.40532 0.666016 9.00033 0.666016ZM9.00033 2.33268C5.32413 2.33268 2.33366 5.32751 2.33366 8.99935C2.33366 12.6712 5.32413 15.666 9.00033 15.666C12.6765 15.666 15.667 12.6712 15.667 8.99935C15.667 5.32755 12.6765 2.33268 9.00033 2.33268ZM8.17072 8.99242C8.17072 8.53602 8.5407 8.16604 8.9971 8.16602H9.011C9.4674 8.16603 9.83739 8.53602 9.83739 8.99242V11.9866C9.83739 12.0849 9.83722 12.1999 9.83689 12.3316C9.83572 12.7928 9.46152 13.166 9.00033 13.166C8.54196 13.166 8.17039 12.7944 8.17039 12.3361C8.17039 12.3355 8.17039 12.335 8.17038 12.3345C8.17061 12.217 8.17072 12.101 8.17072 11.9866V8.99242ZM7.95866 5.89252C7.95866 5.31723 8.42102 4.85086 9.00033 4.85086C9.57562 4.85086 10.042 5.31322 10.042 5.89252C10.042 6.46782 9.57963 6.93419 9.00033 6.93419C8.42503 6.93419 7.95866 6.47183 7.95866 5.89252Z" fill="#FA284B"></path></svg>