<svg xmlns:xlink="http://www.w3.org/1999/xlink" xmlns="http://www.w3.org/2000/svg" width="1.1875" height="1.1875" viewBox="0 0 19 19" fill="#676A70"><path fill-rule="evenodd" clip-rule="evenodd" d="M14.1668 0.0410156C11.5205 0.0410156 9.37516 2.18632 9.37516 4.83268C9.37516 7.47905 11.5205 9.62435 14.1668 9.62435C16.8132 9.62435 18.9585 7.47905 18.9585 4.83268C18.9585 2.18632 16.8132 0.0410156 14.1668 0.0410156ZM10.6252 4.83268C10.6252 2.87667 12.2108 1.29102 14.1668 1.29102C16.1228 1.29102 17.7085 2.87667 17.7085 4.83268C17.7085 6.78869 16.1228 8.37435 14.1668 8.37435C12.2108 8.37435 10.6252 6.78869 10.6252 4.83268Z" fill="#676A70"></path><path d="M8.39257 3.99935C8.35364 4.27152 8.3335 4.54975 8.3335 4.83268C8.3335 5.11562 8.35364 5.39385 8.39257 5.66602H6.00307L7.21753 10.8287C7.29617 11.2246 7.64727 11.5072 8.06683 11.4993L14.5161 11.4995C14.9197 11.5072 15.2708 11.2246 15.3524 10.8147L15.4135 10.5325C16.0884 10.3856 16.7197 10.1218 17.2852 9.76346L16.9842 11.1534C16.7483 12.3412 15.695 13.1891 14.5002 13.166L8.0828 13.1659C6.87203 13.1891 5.81872 12.3412 5.58898 11.1819L3.50682 2.33268H1.66683C1.20659 2.33268 0.833496 1.95959 0.833496 1.49935C0.833496 1.03911 1.20659 0.666016 1.66683 0.666016H4.16683C4.55354 0.666016 4.88944 0.932053 4.97801 1.30848L5.61101 3.99935H8.39257Z" fill="#676A70"></path><path d="M6.66683 16.4993C6.66683 17.4198 7.41302 18.166 8.3335 18.166C9.25397 18.166 10.0002 17.4198 10.0002 16.4993C10.0002 15.5789 9.25397 14.8327 8.3335 14.8327C7.41302 14.8327 6.66683 15.5789 6.66683 16.4993Z" fill="#676A70"></path><path d="M12.5002 16.4993C12.5002 17.4198 13.2464 18.166 14.1668 18.166C15.0873 18.166 15.8335 17.4198 15.8335 16.4993C15.8335 15.5789 15.0873 14.8327 14.1668 14.8327C13.2464 14.8327 12.5002 15.5789 12.5002 16.4993Z" fill="#676A70"></path><path fill-rule="evenodd" clip-rule="evenodd" d="M16.4585 3.37435C16.7026 3.61843 16.7026 4.01415 16.4585 4.25823L14.1668 6.5499C13.9228 6.79398 13.527 6.79398 13.2829 6.5499L12.2413 5.50823C11.9972 5.26415 11.9972 4.86843 12.2413 4.62435C12.4854 4.38027 12.8811 4.38027 13.1252 4.62435L13.7249 5.22407L15.5746 3.37435C15.8187 3.13027 16.2144 3.13027 16.4585 3.37435Z" fill="#676A70"></path></svg>