<svg xmlns:xlink="http://www.w3.org/1999/xlink" xmlns="http://www.w3.org/2000/svg" width="6.0625" height="5.4375" fill="none" viewBox="0 0 97 87"><path fill="#D2D3D6" fill-rule="evenodd" d="M97 43.5c0 23.748-19.252 43-43 43H43V.5h11c23.748 0 43 19.252 43 43z" clip-rule="evenodd"></path><path fill="#B5B8BD" d="M95.831 53.5c-4.508 18.925-21.526 33-41.831 33H43v-33h52.831z"></path><path fill="#EDEEF0" fill-rule="evenodd" d="M86 43.5c0 23.748-19.252 43-43 43S0 67.248 0 43.5 19.252.5 43 .5s43 19.252 43 43z" clip-rule="evenodd"></path><path fill="#FFFFFF" fill-rule="evenodd" d="M75 43.5c0 17.673-14.327 32-32 32-17.673 0-32-14.327-32-32 0-17.673 14.327-32 32-32 17.673 0 32 14.327 32 32z" clip-rule="evenodd"></path><path fill="#B5B8BD" fill-rule="evenodd" d="M29 43.5a2 2 0 11-3.999.001A2 2 0 0129 43.5zM61 43.5a2 2 0 11-3.999.001A2 2 0 0161 43.5zM39 52.278l-.707-.707a1 1 0 001.412 1.416l.002-.002.022-.02a5.985 5.985 0 01.54-.435c.383-.275.919-.594 1.547-.803.624-.209 1.32-.302 2.05-.156.723.145 1.55.538 2.427 1.414a1 1 0 001.414-1.414c-1.124-1.124-2.296-1.73-3.448-1.961-1.145-.23-2.2-.073-3.075.22a7.95 7.95 0 00-2.078 1.072 7.912 7.912 0 00-.79.646l-.015.014-.005.005-.002.002c0 .001-.001.002.706.709z" clip-rule="evenodd"></path><path fill="#FFFFFF" fill-rule="evenodd" d="M25.799 10.707a1.5 1.5 0 01-.549 2.05A35.5 35.5 0 0012.256 25.75a1.5 1.5 0 01-2.598-1.5A38.5 38.5 0 0123.75 10.158a1.5 1.5 0 012.049.55zM9.309 28.133a1.5 1.5 0 01.822 1.955l-.053.13a1.5 1.5 0 11-2.782-1.122l.057-.141a1.5 1.5 0 011.956-.822z" clip-rule="evenodd"></path></svg>