<svg xmlns:xlink="http://www.w3.org/1999/xlink" xmlns="http://www.w3.org/2000/svg" width="17" height="18" viewBox="0 0 17 18" fill="var(--sf-carbon-main)" style="transform: rotate(180deg);"><path d="M8.49984 0.666016C13.0947 0.666016 16.8332 4.40435 16.8332 8.99935C16.8332 13.5944 13.0948 17.3327 8.49984 17.3327C3.90483 17.3327 0.166504 13.5944 0.166504 8.99935C0.166504 4.40435 3.90483 0.666016 8.49984 0.666016ZM8.49984 2.33268C4.82364 2.33268 1.83317 5.32751 1.83317 8.99935C1.83317 12.6712 4.82364 15.666 8.49984 15.666C12.176 15.666 15.1665 12.6712 15.1665 8.99935C15.1665 5.32755 12.176 2.33268 8.49984 2.33268ZM8.49984 11.0827C9.07915 11.0827 9.5415 11.5491 9.5415 12.1243C9.5415 12.7037 9.07513 13.166 8.49984 13.166C7.92053 13.166 7.45817 12.6996 7.45817 12.1243C7.45817 11.545 7.92454 11.0827 8.49984 11.0827ZM8.49984 4.85086C8.96103 4.85086 9.33523 5.22411 9.3364 5.68531C9.33651 5.72919 9.3366 5.77122 9.33668 5.8114L9.3369 9.02446L9.33134 9.12083C9.2836 9.53182 8.93431 9.85084 8.51052 9.85086H8.49661C8.04022 9.85083 7.67023 9.48085 7.67023 9.02446L7.6699 5.68079C7.6699 5.22243 8.04148 4.85086 8.49984 4.85086Z" fill="#3A3D42"></path></svg>