<svg xmlns:xlink="http://www.w3.org/1999/xlink" xmlns="http://www.w3.org/2000/svg" width="17" height="18" viewBox="0 0 17 18" fill="#9C9FA3"><path fill-rule="evenodd" clip-rule="evenodd" d="M8.50002 0.666016C13.1022 0.666016 16.833 4.39684 16.833 8.99904C16.833 13.6012 13.1022 17.3321 8.50002 17.3321C3.89782 17.3321 0.166992 13.6012 0.166992 8.99904C0.166992 8.53881 0.540088 8.16571 1.00033 8.16571C1.46056 8.16571 1.83366 8.53881 1.83366 8.99904C1.83366 12.6808 4.81829 15.6654 8.50002 15.6654C12.1818 15.6654 15.1664 12.6808 15.1664 8.99904C15.1664 5.31731 12.1818 2.33268 8.50002 2.33268C7.1006 2.33268 5.77116 2.76529 4.66459 3.54539L4.79824 3.67996L6.06484 4.94538C6.1817 5.06107 6.24545 5.2157 6.24545 5.38096C6.24545 5.54504 6.1817 5.69968 6.06366 5.81654C5.97111 5.90909 5.85288 5.96915 5.72468 5.98947L5.6269 5.99715L1.519 5.99715C1.20737 5.99715 0.947311 5.76504 0.906133 5.4645L0.900455 5.38096L0.900455 1.28251C0.900455 0.942542 1.17904 0.666321 1.519 0.666321C1.60714 0.666321 1.71819 0.70485 1.85217 0.781909L1.95694 0.846927L3.46936 2.35503C4.89758 1.27163 6.65136 0.666016 8.50002 0.666016ZM8.26457 5.53638C8.65918 5.53638 8.98441 5.83342 9.02886 6.21611L9.03404 6.30585V9.90387L10.9607 11.0275C11.3015 11.2263 11.4328 11.6468 11.2784 11.9997L11.2376 12.0798C11.0388 12.4207 10.6183 12.5519 10.2654 12.3975L10.1853 12.3568L7.87686 11.0102C7.66673 10.8876 7.52853 10.674 7.50041 10.4359L7.4951 10.3455L7.4951 6.30585C7.4951 5.88088 7.8396 5.53638 8.26457 5.53638Z" fill="#9C9FA3"></path></svg>