<svg xmlns:xlink="http://www.w3.org/1999/xlink" width="24" height="1.5" viewBox="0 0 24 24" fill="none" xmlns="http://www.w3.org/2000/svg"><path d="M13.75 9.75089L8.42302 11.5266C7.96718 11.6785 7.96718 12.3233 8.42302 12.4752L13.75 14.2509L15.5257 19.5779C15.6776 20.0337 16.3224 20.0337 16.4743 19.5779L18.25 14.2509L23.577 12.4752C24.0328 12.3233 24.0328 11.6785 23.577 11.5266L18.25 9.75089L16.4743 4.42392C16.3224 3.96807 15.6776 3.96807 15.5257 4.42392L13.75 9.75089Z" fill="url(&quot;#paint0_linear&quot;)"></path><path d="M4.25 4.25089L0.423025 5.52655C-0.0328234 5.6785 -0.0328234 6.32328 0.423025 6.47523L4.25 7.75089L5.52566 11.5779C5.67761 12.0337 6.32239 12.0337 6.47434 11.5779L7.75 7.75089L11.577 6.47523C12.0328 6.32328 12.0328 5.6785 11.577 5.52655L7.75 4.25089L6.47434 0.423917C6.32239 -0.0319308 5.67761 -0.0319308 5.52566 0.423917L4.25 4.25089Z" fill="url(&quot;#paint1_linear&quot;)"></path><path d="M6.5 17.5009L3.42302 18.5266C2.96718 18.6785 2.96718 19.3233 3.42302 19.4752L6.5 20.5009L7.52566 23.5779C7.67761 24.0337 8.32239 24.0337 8.47434 23.5779L9.5 20.5009L12.577 19.4752C13.0328 19.3233 13.0328 18.6785 12.577 18.5266L9.5 17.5009L8.47434 14.4239C8.32239 13.9681 7.67761 13.9681 7.52566 14.4239L6.5 17.5009Z" fill="url(&quot;#paint2_linear&quot;)"></path><defs><linearGradient id="paint0_linear" x1="23.9189" y1="19.9198" x2="8.08114" y2="4.08203" gradientUnits="userSpaceOnUse"><stop stop-color="#FF00A4"></stop><stop offset="1" stop-color="#FF00A4" stop-opacity="0.3"></stop></linearGradient><linearGradient id="paint1_linear" x1="11.9189" y1="11.9198" x2="0.0811405" y2="0.0820293" gradientUnits="userSpaceOnUse"><stop stop-color="#A3A3A3"></stop><stop offset="1" stop-color="#A3A3A3" stop-opacity="0.3"></stop></linearGradient><linearGradient id="paint2_linear" x1="13.9026" y1="23.9198" x2="4.06491" y2="14.082" gradientUnits="userSpaceOnUse"><stop stop-color="#00D170"></stop><stop offset="1" stop-color="#00D170" stop-opacity="0.3"></stop></linearGradient><linearGradient id="paint0_linear" x1="23.9189" y1="19.9198" x2="8.08114" y2="4.08203" gradientUnits="userSpaceOnUse"><stop stop-color="#FF00A4"></stop><stop offset="1" stop-color="#FF00A4" stop-opacity="0.3"></stop></linearGradient><linearGradient id="paint1_linear" x1="11.9189" y1="11.9198" x2="0.0811405" y2="0.0820293" gradientUnits="userSpaceOnUse"><stop stop-color="#A3A3A3"></stop><stop offset="1" stop-color="#A3A3A3" stop-opacity="0.3"></stop></linearGradient><linearGradient id="paint2_linear" x1="13.9026" y1="23.9198" x2="4.06491" y2="14.082" gradientUnits="userSpaceOnUse"><stop stop-color="#00D170"></stop><stop offset="1" stop-color="#00D170" stop-opacity="0.3"></stop></linearGradient></defs></svg>