<svg xmlns:xlink="http://www.w3.org/1999/xlink" xmlns="http://www.w3.org/2000/svg" width="1.1875" height="0.875" viewBox="0 0 19 14" fill="#676A70"><path d="M7.56427 0.605469C6.96744 0.605469 6.42056 0.863132 6.04984 1.27855C5.19798 1.34428 4.57223 1.87538 3.96751 2.39333L3.73614 2.60367C3.4597 2.83528 2.71574 3.45542 1.50428 4.4641C1.07927 4.81796 0.833496 5.3424 0.833496 5.89543C0.833496 6.12155 1.0168 6.30485 1.24292 6.30485C1.33854 6.30485 1.43115 6.27138 1.50471 6.21028C3.13935 4.8511 4.17062 3.99245 4.59852 3.63432L4.85092 3.42398C5.12699 3.18735 5.33996 3.01119 5.54503 2.8771V7.39934C5.50021 7.42408 5.44992 7.45169 5.39416 7.48215C5.0708 7.65879 4.95037 8.06313 5.12436 8.38792C5.29685 8.70991 5.69771 8.83109 6.01969 8.6586C6.02165 8.65755 6.0236 8.6565 6.02554 8.65541C7.37724 7.91366 8.14255 7.49497 8.32148 7.39934C9.04188 7.01022 9.48359 6.66316 10.1514 6.66316C10.5905 6.66316 10.9297 7.01285 10.9297 7.52554C10.9297 7.8279 10.8639 7.94096 10.7403 8.09345C10.6168 8.24594 10.3986 8.42473 10.0883 8.61929C9.35738 9.07677 8.55285 9.86028 8.55285 9.86028L8.51078 9.92338L8.46871 9.96544C7.68784 11.1039 6.68348 12.0478 4.89299 12.0478H1.50657C1.13484 12.0478 0.833496 12.3491 0.833496 12.7209C0.833496 13.0926 1.13484 13.3939 1.50657 13.3939H4.89299C7.12256 13.3939 8.57914 12.1267 9.49936 10.8278C9.49936 10.8278 9.98576 10.3756 10.4248 10.0285H16.3143C17.4238 10.0285 18.3335 9.11884 18.3335 8.00932V2.6247C18.3335 1.51517 17.4238 0.605469 16.3143 0.605469H7.56427ZM7.56427 1.95162H16.3143C16.6929 1.95162 16.9873 2.24609 16.9873 2.6247V3.29778H7.56427V4.64393H16.9873V8.00932C16.9873 8.38792 16.6929 8.68239 16.3143 8.68239H11.9813C12.168 8.35637 12.2758 7.96199 12.2758 7.52554C12.2758 6.33188 11.3398 5.31701 10.1514 5.31701C9.01033 5.31701 8.2426 5.91121 7.66943 6.22145C7.57741 6.27141 7.20932 6.46597 6.89119 6.64213V2.6247C6.89119 2.24609 7.18566 1.95162 7.56427 1.95162Z" fill="#676A70"></path></svg>