<svg xmlns:xlink="http://www.w3.org/1999/xlink" width="7" height="8" viewBox="0 0 8 10" fill="#fff" xmlns="http://www.w3.org/2000/svg"><path d="M1.5 0C0.671573 0 0 0.671573 0 1.5C0 2.32843 0.671573 3 1.5 3C2.32843 3 3 2.32843 3 1.5C3 0.671573 2.32843 0 1.5 0Z" fill="#FFFFFF"></path><path d="M7.60006 0.200059C8.04189 0.53143 8.13143 1.15823 7.80006 1.60006L1.80006 9.60006C1.46869 10.0419 0.841887 10.1314 0.400059 9.80006C-0.0417689 9.46869 -0.131312 8.84189 0.200059 8.40006L6.20006 0.400059C6.53143 -0.0417688 7.15823 -0.131312 7.60006 0.200059Z" fill="#FFFFFF"></path><path d="M5 8.5C5 7.67157 5.67157 7 6.5 7C7.32843 7 8 7.67157 8 8.5C8 9.32843 7.32843 10 6.5 10C5.67157 10 5 9.32843 5 8.5Z" fill="#FFFFFF"></path></svg>