<svg xmlns:xlink="http://www.w3.org/1999/xlink" width="160" height="160" viewBox="0 0 160 160" fill="none" xmlns="http://www.w3.org/2000/svg"><path fill-rule="evenodd" clip-rule="evenodd" d="M124 75C124 98.748 104.748 118 81 118C70 118 70 118 70 118V32H81C104.748 32 124 51.252 124 75Z" fill="#D2D3D6"></path><path d="M122.831 85C118.323 103.925 101.305 118 81 118H70V85H122.831Z" fill="#B5B8BD"></path><path fill-rule="evenodd" clip-rule="evenodd" d="M113 75C113 98.748 93.748 118 70 118C46.252 118 27 98.748 27 75C27 51.252 46.252 32 70 32C93.748 32 113 51.252 113 75Z" fill="#EDEEF0"></path><path fill-rule="evenodd" clip-rule="evenodd" d="M102 75C102 92.673 87.673 107 70 107C52.327 107 38 92.673 38 75C38 57.327 52.327 43 70 43C87.673 43 102 57.327 102 75Z" fill="#FFFFFF"></path><path fill-rule="evenodd" clip-rule="evenodd" d="M56 75C56 76.105 55.105 77 54 77C52.895 77 52 76.105 52 75C52 73.895 52.895 73 54 73C55.105 73 56 73.895 56 75Z" fill="#B5B8BD"></path><path fill-rule="evenodd" clip-rule="evenodd" d="M88 75C88 76.105 87.105 77 86 77C84.895 77 84 76.105 84 75C84 73.895 84.895 73 86 73C87.105 73 88 73.895 88 75Z" fill="#B5B8BD"></path><path d="M66 83.7778C66 83.7778 70 79.7778 74 83.7778" stroke="#B5B8BD" stroke-width="2px" stroke-linecap="round" stroke-linejoin="round" fill="none"></path><path fill-rule="evenodd" clip-rule="evenodd" d="M52.799 42.2071C53.2132 42.9245 52.9674 43.8419 52.25 44.2561C46.8533 47.3719 42.3719 51.8533 39.2561 57.25C38.8419 57.9674 37.9245 58.2133 37.207 57.799C36.4896 57.3848 36.2438 56.4674 36.658 55.75C40.0371 49.8973 44.8973 45.0371 50.75 41.658C51.4674 41.2438 52.3848 41.4896 52.799 42.2071Z" fill="#FFFFFF"></path><path fill-rule="evenodd" clip-rule="evenodd" d="M36.3088 59.6327C37.0758 59.9457 37.4439 60.8212 37.1309 61.5882L37.0782 61.7181C36.7683 62.4864 35.8942 62.8579 35.126 62.548C34.3577 62.2381 33.9862 61.364 34.2961 60.5957C34.3151 60.5487 34.3341 60.5018 34.3533 60.4548C34.6663 59.6878 35.5418 59.3197 36.3088 59.6327Z" fill="#FFFFFF"></path><path d="M104.654 100.462L115.226 101.034L133.596 119.404C136.135 121.942 136.135 126.058 133.596 128.596C131.058 131.135 126.942 131.135 124.404 128.596L123.983 128.175C126.127 125.621 125.999 121.806 123.596 119.404L104.654 100.462Z" fill="#D2D3D6"></path><path d="M125.5 124L119 130.5C119 130.5 127.337 130.5 129 130.5C130.664 130.5 132.327 129.865 133.596 128.596C134.865 127.327 135.5 125.663 135.5 124H125.5Z" fill="#B5B8BD"></path><path fill-rule="evenodd" clip-rule="evenodd" d="M101.596 97.4038L123.596 119.404C126.135 121.942 126.135 126.058 123.596 128.596C121.058 131.135 116.942 131.135 114.404 128.596L92.4038 106.596L101.596 97.4038Z" fill="#EDEEF0"></path></svg>