<svg xmlns:xlink="http://www.w3.org/1999/xlink" width="1.125" height="1.125" viewBox="0 0 18 18" fill="#676A70" xmlns="http://www.w3.org/2000/svg"><path d="M7 16C7.55228 16 8 16.4477 8 17C8 17.5523 7.55228 18 7 18H3C1.34315 18 0 16.6569 0 15L0 3C0 1.34315 1.34315 0 3 0L7 0C7.55228 0 8 0.447715 8 1C8 1.55228 7.55228 2 7 2L3 2C2.44772 2 2 2.44772 2 3L2 15C2 15.5523 2.44772 16 3 16L7 16ZM14.5858 8L11.2929 4.70711C10.9024 4.31658 10.9024 3.68342 11.2929 3.29289C11.6834 2.90237 12.3166 2.90237 12.7071 3.29289L17.7071 8.29289C18.0976 8.68342 18.0976 9.31658 17.7071 9.70711L12.7071 14.7071C12.3166 15.0976 11.6834 15.0976 11.2929 14.7071C10.9024 14.3166 10.9024 13.6834 11.2929 13.2929L14.5858 10H6C5.44772 10 5 9.55228 5 9C5 8.44772 5.44772 8 6 8L14.5858 8Z" fill="#676A70"></path></svg>