<svg xmlns:xlink="http://www.w3.org/1999/xlink" xmlns="http://www.w3.org/2000/svg" width="1.5" height="1.5" viewBox="0 0 24 24" fill="var(--sf-surface-light)"><path d="M17 17L17 10C17 9.44772 17.4477 9 18 9C18 6.23858 15.7614 4 13 4H11C8.23858 4 6 6.23858 6 9C6.55228 9 7 9.44772 7 10L7 17C7 17.5523 6.55228 18 6 18H4C2.34315 18 1 16.6569 1 15L1 12C1 10.3431 2.34315 9 4 9C4 5.13401 7.13401 2 11 2L13 2C16.866 2 20 5.13401 20 9C21.6569 9 23 10.3431 23 12L23 15C23 16.6569 21.6569 18 20 18H18.3946C17.9424 20.1102 16.0886 21.7004 13.8551 21.7489C13.5587 22.4824 12.8398 23 12 23H10C8.89543 23 8 22.1046 8 21C8 19.8954 8.89543 19 10 19H12C12.8387 19 13.5569 19.5163 13.854 20.2484C15.6008 20.1935 17 18.7601 17 17ZM10 20.5C9.72386 20.5 9.5 20.7239 9.5 21C9.5 21.2761 9.72386 21.5 10 21.5H12C12.2761 21.5 12.5 21.2761 12.5 21C12.5 20.7239 12.2761 20.5 12 20.5H10ZM5 11H4C3.44772 11 3 11.4477 3 12L3 15C3 15.5523 3.44772 16 4 16H5L5 11ZM19 11L19 16H20C20.5523 16 21 15.5523 21 15L21 12C21 11.4477 20.5523 11 20 11H19Z" fill="#FFFFFF"></path></svg>