<svg width="120" height="114" viewBox="0 0 120 114" fill="none" xmlns="http://www.w3.org/2000/svg">
<rect width="120" height="113.402" transform="translate(0 0.000976562)" fill="white"/>
<g opacity="0.4">
<path d="M92.4668 109.234H116.25C116.25 109.234 115.421 106.043 112.049 106.386C112.049 106.386 107.353 99.9524 101.008 105.482C101.019 105.482 94.1794 103.538 92.4668 109.234Z" fill="#7A828E"/>
<path d="M48.3155 45.3892H104.93V103.788H48.3155V45.3892Z" fill="url(#paint0_linear_28586_9251)"/>
<path d="M53.9153 67.0564H80.4561V90.8048H53.9153V67.0564Z" fill="white"/>
<path d="M59.5061 68.1819C59.5061 71.1335 61.9835 73.524 65.0426 73.524C68.1017 73.524 70.5791 71.1335 70.5791 68.1819H59.5061Z" fill="#A0A7B0"/>
<path d="M78.8942 67.0564H80.4561V90.8048H78.8942V67.0564Z" fill="#9DA1AB"/>
<path d="M70.5905 68.1819C70.5905 71.1335 73.068 73.524 76.127 73.524C79.1861 73.524 81.6743 71.1335 81.6743 68.1819H70.5905Z" fill="#F2F4F5"/>
<path d="M18.3809 45.3892H49.3271V103.788H18.3809V45.3892Z" fill="url(#paint1_linear_28586_9251)"/>
<path d="M49.3281 53.2319H59.7979V68.2604H49.3281V53.2319Z" fill="#505767"/>
<path d="M60.551 53.2319H49.4672L59.4739 68.2604H70.5576L60.551 53.2319Z" fill="#7A828E"/>
<path d="M71.6355 53.2319H60.5517L70.5583 68.2604H81.6421L71.6355 53.2319Z" fill="white"/>
<path d="M82.3848 67.0564H100.018V104.628H82.3848V67.0564Z" fill="white"/>
<path d="M81.6736 68.1819C81.6736 71.1335 84.151 73.524 87.2101 73.524C90.2692 73.524 92.7466 71.1335 92.7466 68.1819H81.6736Z" fill="#A0A7B0"/>
<path d="M82.7192 53.2319H71.6354L81.6421 68.2604H92.7258L82.7192 53.2319Z" fill="#7A828E"/>
<path d="M98.585 67.0564H100.018V104.628H98.585V67.0564Z" fill="#9DA1AB"/>
<path d="M92.7573 68.1819C92.7573 71.1335 95.2347 73.524 98.2938 73.524C101.353 73.524 103.83 71.1335 103.83 68.1819H92.7573Z" fill="#F2F4F5"/>
<path d="M93.8027 53.2319H82.7189L92.7256 68.2604H103.809L93.8027 53.2319Z" fill="white"/>
<path d="M104.854 53.2319H93.7702L103.777 68.2604H114.796C114.828 68.2604 114.839 68.2293 114.828 68.2085L104.854 53.2319Z" fill="#7A828E"/>
<path d="M103.723 68.1819C103.723 71.1335 106.2 73.524 109.259 73.524C112.318 73.524 114.796 71.1335 114.796 68.1819H103.723Z" fill="#A0A7B0"/>
<path d="M84.7346 87.7906H86.4364C87.3951 87.7906 88.1814 87.0319 88.1814 86.1069V79.1954C88.1814 78.2704 87.3951 77.5117 86.4364 77.5117H84.7346V78.312H86.4364C86.9427 78.312 87.352 78.7069 87.352 79.1954V86.1069C87.352 86.5953 86.9427 86.9903 86.4364 86.9903H84.7346V87.7906Z" fill="#5C6374"/>
<path d="M36.0139 55.7109H40.9688V67.0499H36.0139V55.7109Z" fill="#505767"/>
<path d="M21.9571 55.7109H37.4355V67.0499H21.9571V55.7109Z" fill="url(#paint2_linear_28586_9251)"/>
<path d="M24.3483 58.5151H30.2295V59.6688H24.3483V58.5151Z" fill="white"/>
<path d="M24.2951 60.8635H30.1763V62.0172H24.2951V60.8635Z" fill="white"/>
<path d="M24.2951 63.2532H30.1763V64.4068H24.2951V63.2532Z" fill="white"/>
<path d="M88.8578 39.4158H91.249V43.6666H88.8578V39.4158Z" fill="#5C6374"/>
<path d="M60.3465 39.4551H62.7378V43.7059H60.3465V39.4551Z" fill="#5C6374"/>
<path d="M53.3123 29.6619H91.6584V40.8241H53.3123V29.6619Z" fill="#5C6374"/>
<path d="M56.9863 29.6101H95.3325V40.8659H56.9863V29.6101Z" fill="url(#paint3_linear_28586_9251)"/>
<path d="M48.3143 43.0388H106.167V47.643H48.3143V43.0388Z" fill="url(#paint4_linear_28586_9251)"/>
<path d="M48.3143 102.322H106.167V106.926H48.3143V102.322Z" fill="url(#paint5_linear_28586_9251)"/>
<path d="M17.1422 102.322H49.3271V106.926H17.1422V102.322Z" fill="url(#paint6_linear_28586_9251)"/>
<path d="M15.6235 106.312H49.3271V109.233H15.6235V106.312Z" fill="#5C6374"/>
<path d="M48.3149 106.312H109.389V109.233H48.3149V106.312Z" fill="#5C6374"/>
<path d="M17.1422 43.0388H49.3271V47.643H17.1422V43.0388Z" fill="#5C6374"/>
<path d="M55.1682 24.6364C49.3442 24.6364 44.623 20.081 44.623 14.4615C44.623 8.84208 49.3442 4.28662 55.1682 4.28662C60.9921 4.28662 65.7134 8.84208 65.7134 14.4615C65.7134 20.081 60.9921 24.6364 55.1682 24.6364Z" fill="url(#paint7_linear_28586_9251)"/>
<path d="M28.9795 109.234H5.19626C5.19626 109.234 5.71329 106.043 9.3971 106.386C9.3971 106.386 14.0934 99.9524 20.4378 105.482C20.427 105.482 27.2668 103.538 28.9795 109.234Z" fill="#7A828E"/>
<path d="M97.5029 22.532H80.0856C80.0856 22.532 80.4626 20.1935 83.1554 20.443C83.1554 20.443 86.5915 15.7349 91.234 19.7882C91.2448 19.7882 96.2534 18.3539 97.5029 22.532Z" fill="url(#paint8_linear_28586_9251)"/>
<path d="M41.7017 28.5209H17.9184C17.9184 28.5209 18.4354 25.3302 22.1193 25.6731C22.1193 25.6731 26.8156 19.2398 33.1599 24.7689C33.1492 24.7793 39.989 22.8254 41.7017 28.5209Z" fill="url(#paint9_linear_28586_9251)"/>
</g>
<defs>
<linearGradient id="paint0_linear_28586_9251" x1="104.934" y1="74.5875" x2="48.3172" y2="74.5875" gradientUnits="userSpaceOnUse">
<stop stop-color="#C5C9CC"/>
<stop offset="1" stop-color="#F2F4F5"/>
</linearGradient>
<linearGradient id="paint1_linear_28586_9251" x1="49.4216" y1="74.4569" x2="18.8719" y2="74.7322" gradientUnits="userSpaceOnUse">
<stop stop-color="#505767" stop-opacity="0.75"/>
<stop offset="1" stop-color="#DADBDE"/>
</linearGradient>
<linearGradient id="paint2_linear_28586_9251" x1="37.4338" y1="61.3859" x2="21.9595" y2="61.3859" gradientUnits="userSpaceOnUse">
<stop stop-color="#C5C9CC"/>
<stop offset="1" stop-color="#F2F4F5"/>
</linearGradient>
<linearGradient id="paint3_linear_28586_9251" x1="95.3369" y1="35.2421" x2="56.9956" y2="35.2421" gradientUnits="userSpaceOnUse">
<stop stop-color="#C5C9CC"/>
<stop offset="1" stop-color="#F2F4F5"/>
</linearGradient>
<linearGradient id="paint4_linear_28586_9251" x1="106.105" y1="45.88" x2="48.8014" y2="44.7379" gradientUnits="userSpaceOnUse">
<stop stop-color="#505767"/>
<stop offset="1" stop-color="#DADBDE"/>
<stop offset="1" stop-color="#DADBDE"/>
</linearGradient>
<linearGradient id="paint5_linear_28586_9251" x1="106.172" y1="104.626" x2="48.316" y2="104.626" gradientUnits="userSpaceOnUse">
<stop stop-color="#505767"/>
<stop offset="1" stop-color="#DADBDE"/>
</linearGradient>
<linearGradient id="paint6_linear_28586_9251" x1="49.3265" y1="104.626" x2="17.1382" y2="104.626" gradientUnits="userSpaceOnUse">
<stop stop-color="#5C6374"/>
<stop offset="1" stop-color="#74777C"/>
</linearGradient>
<linearGradient id="paint7_linear_28586_9251" x1="55.2654" y1="2.36365" x2="55.1749" y2="24.6365" gradientUnits="userSpaceOnUse">
<stop stop-color="#C5C9CC"/>
<stop offset="1" stop-color="#F2F4F5" stop-opacity="0.24"/>
<stop offset="1" stop-color="#F2F4F5" stop-opacity="0.25"/>
</linearGradient>
<linearGradient id="paint8_linear_28586_9251" x1="88.8508" y1="17.4385" x2="88.7982" y2="22.532" gradientUnits="userSpaceOnUse">
<stop stop-color="#C5C9CC"/>
<stop offset="1" stop-color="#F2F4F5" stop-opacity="0.25"/>
</linearGradient>
<linearGradient id="paint9_linear_28586_9251" x1="29.6815" y1="21.3317" x2="29.6815" y2="28.644" gradientUnits="userSpaceOnUse">
<stop stop-color="#C5C9CC"/>
<stop offset="1" stop-color="#F2F4F5" stop-opacity="0.25"/>
</linearGradient>
</defs>
</svg>
