<svg xmlns:xlink="http://www.w3.org/1999/xlink" width="1.0625" height="1" viewBox="0 0 17 16" fill="#676A70" xmlns="http://www.w3.org/2000/svg"><path fill-rule="evenodd" clip-rule="evenodd" d="M13.8333 0.500977C14.75 0.500977 15.5 1.25098 15.5 2.16764V4.06764C15.9917 4.35931 16.3333 4.88431 16.3333 5.50098V10.501C16.3333 11.1176 15.9917 11.6426 15.5 11.9343V13.8343C15.5 14.751 14.75 15.501 13.8333 15.501L2.16667 15.501C1.24167 15.501 0.5 14.751 0.5 13.8343L0.5 2.16764C0.5 1.25098 1.24167 0.500977 2.16667 0.500977L13.8333 0.500977ZM13.8333 2.16764L2.16667 2.16764L2.16667 13.8343L13.8333 13.8343V12.1676H8.83333C7.91667 12.1676 7.16667 11.4176 7.16667 10.501L7.16667 5.50098C7.16667 4.58431 7.91667 3.83431 8.83333 3.83431L13.8333 3.83431V2.16764ZM14.6667 5.50098L8.83333 5.50098L8.83333 10.501H14.6667L14.6667 5.50098ZM11.3333 6.75098C12.0237 6.75098 12.5833 7.31062 12.5833 8.00098C12.5833 8.69133 12.0237 9.25098 11.3333 9.25098C10.643 9.25098 10.0833 8.69133 10.0833 8.00098C10.0833 7.31062 10.643 6.75098 11.3333 6.75098Z" fill="#676A70"></path></svg>