<svg xmlns:xlink="http://www.w3.org/1999/xlink" xmlns="http://www.w3.org/2000/svg" width="1.125" height="1.125" viewBox="0 0 18 18" fill="#676A70"><path fill-rule="evenodd" clip-rule="evenodd" d="M8.99984 0.666016C13.6022 0.666016 17.3332 4.39698 17.3332 8.99935C17.3332 13.6017 13.6022 17.3327 8.99984 17.3327C4.39746 17.3327 0.666504 13.6017 0.666504 8.99935C0.666504 4.39698 4.39746 0.666016 8.99984 0.666016ZM8.99984 2.33268C5.31794 2.33268 2.33317 5.31745 2.33317 8.99935C2.33317 12.6812 5.31794 15.666 8.99984 15.666C12.6817 15.666 15.6665 12.6812 15.6665 8.99935C15.6665 5.31745 12.6817 2.33268 8.99984 2.33268ZM8.99984 3.99935C9.4272 3.99935 9.77943 4.32105 9.82756 4.7355L9.83317 4.83268V8.72935L11.9197 9.9462C12.2889 10.1615 12.431 10.6169 12.2638 10.9991L12.2197 11.0859C12.0043 11.4551 11.549 11.5972 11.1667 11.43L11.0799 11.3858L8.57995 9.9275C8.35238 9.79475 8.2027 9.56344 8.17225 9.30551L8.1665 9.20768V4.83268C8.1665 4.37245 8.5396 3.99935 8.99984 3.99935Z" fill="#676A70"></path></svg>